<svg width="30" height="33" viewBox="0 0 30 33" fill="none" xmlns="http://www.w3.org/2000/svg">
<mask id="mask0_1_16014" style="mask-type:alpha" maskUnits="userSpaceOnUse" x="0" y="0" width="30" height="33">
<path d="M12.0589 0.756205C13.8053 -0.252068 15.9569 -0.252069 17.7033 0.756204L26.94 6.08901C28.6864 7.09728 29.7622 8.96065 29.7622 10.9772V21.6428C29.7622 23.6594 28.6864 25.5227 26.94 26.531L17.7033 31.8638C15.9569 32.8721 13.8053 32.8721 12.0589 31.8638L2.8222 26.531C1.07582 25.5227 0 23.6594 0 21.6428V10.9772C0 8.96065 1.07582 7.09728 2.8222 6.08901L12.0589 0.756205Z" fill="#C4C4C4"/>
</mask>
<g mask="url(#mask0_1_16014)">
<path d="M14.8768 -1.15405L31.1887 8.26358L22.9338 12.7083L19.5241 10.8485L16.4243 11.1585L8.67486 8.36867L6.815 10.8485L5.88507 12.0884L4.02521 10.8485L-1.43499 8.26358L14.8768 -1.15405Z" fill="url(#paint0_linear_1_16014)"/>
<path d="M-0.12854 8.39708L6.19935 11.4657L9.91908 20.455L9.91908 20.765L11.159 22.3149L16.7386 26.6546L14.8806 34.3936L-0.12854 25.7281L-0.12854 8.39708Z" fill="url(#paint1_linear_1_16014)"/>
<path d="M19.8341 20.7643L23.8638 12.085L29.886 8.39874L29.886 25.7298L14.8769 34.3953L14.5645 26.6539L19.8341 20.7643Z" fill="url(#paint2_linear_1_16014)"/>
<path d="M14.8762 5.89282C12.3114 5.89282 9.97404 6.8663 8.21317 8.4639L9.64274 20.7716C10.0337 20.9521 12.2758 21.7017 12.7064 21.7017H15.8062C16.354 21.7017 20.1459 20.5339 20.1459 21.0817L19.8359 19.7797C19.8359 20.3275 19.3918 20.7716 18.844 20.7716H10.9085C10.3607 20.7716 9.91661 20.3275 9.91661 19.7797V14.9777C9.91661 14.5471 9.82317 14.1217 9.64274 13.7306L8.21317 8.4639C6.61557 10.2247 4.95697 13.2473 4.95697 15.8121C4.95697 21.2904 9.39793 25.7314 14.8762 25.7314C20.3546 25.7314 24.7955 21.2904 24.7955 15.8121C24.7955 10.3338 20.3546 5.89282 14.8762 5.89282Z" fill="url(#paint3_linear_1_16014)"/>
<path d="M13.0393 10.033C13.2582 9.94848 13.4926 9.91531 13.7245 9.93599C13.9565 9.95666 14.1799 10.0306 14.378 10.1523C14.5761 10.274 14.7436 10.4402 14.8678 10.6383C14.992 10.8365 15.0697 11.0613 15.0949 11.2958C15.275 12.9858 14.8955 14.6968 14.0159 16.1605C13.1364 17.6241 11.8065 18.7575 10.2351 19.3827L9.12304 16.5074C10.0617 16.1335 10.8568 15.4575 11.3845 14.5845C11.9123 13.7115 12.1433 12.6905 12.0414 11.6802C12.0043 11.3352 12.0821 10.9859 12.2623 10.6875C12.4426 10.3891 12.7151 10.1587 13.0366 10.0329L13.0393 10.033Z" fill="#9C5AFF"/>
<path d="M13.0265 10.0378C12.6466 10.1891 12.3394 10.4863 12.1723 10.864C12.0052 11.2416 11.9919 11.6689 12.1354 12.0518L15.3854 20.7186C15.5291 21.1015 15.8177 21.4085 16.1879 21.5723C16.558 21.7361 16.9794 21.7432 17.3593 21.592C17.5475 21.5172 17.7198 21.4057 17.8664 21.264C18.0131 21.1223 18.1311 20.953 18.2139 20.766C18.2967 20.579 18.3425 20.3778 18.3488 20.1739C18.355 19.9701 18.3216 19.7676 18.2504 19.578L15.0004 10.9112C14.9294 10.7215 14.822 10.5485 14.6843 10.4019C14.5466 10.2554 14.3814 10.1382 14.1981 10.0571C14.0148 9.97601 13.817 9.93255 13.6159 9.92923C13.4149 9.92591 13.2146 9.96279 13.0265 10.0378Z" fill="#9C5AFF"/>
<path d="M17.345 21.5942C17.1261 21.6787 16.8918 21.712 16.6599 21.6913C16.428 21.6707 16.2046 21.5968 16.0065 21.4752C15.8084 21.3536 15.6409 21.1874 15.5167 20.9893C15.3925 20.7913 15.3148 20.5665 15.2896 20.332C15.1096 18.642 15.4892 16.931 16.3687 15.4673C17.2482 14.0036 18.5779 12.87 20.1491 12.2444L21.2613 15.1209C20.3226 15.4948 19.5275 16.1708 18.9998 17.0438C18.472 17.9167 18.241 18.9378 18.3429 19.9481C18.3795 20.2932 18.3011 20.6425 18.1204 20.9407C17.9396 21.2389 17.6667 21.4688 17.345 21.5942Z" fill="#9C5AFF"/>
</g>
<defs>
<linearGradient id="paint0_linear_1_16014" x1="14.5644" y1="0.309258" x2="14.2819" y2="11.6316" gradientUnits="userSpaceOnUse">
<stop stop-color="#4E00D3"/>
<stop offset="1" stop-color="#7A36F0"/>
</linearGradient>
<linearGradient id="paint1_linear_1_16014" x1="14.8787" y1="23.2448" x2="5.90309" y2="12.4831" gradientUnits="userSpaceOnUse">
<stop stop-color="#5508D8"/>
<stop offset="1" stop-color="#7935EF"/>
</linearGradient>
<linearGradient id="paint2_linear_1_16014" x1="14.8744" y1="24.484" x2="23.4474" y2="13.0249" gradientUnits="userSpaceOnUse">
<stop stop-color="#5205D6"/>
<stop offset="1" stop-color="#7A35F0"/>
</linearGradient>
<linearGradient id="paint3_linear_1_16014" x1="14.8762" y1="5.89282" x2="14.8762" y2="25.7314" gradientUnits="userSpaceOnUse">
<stop stop-color="#7935EF"/>
<stop offset="1" stop-color="#6117E0"/>
</linearGradient>
</defs>
</svg>
